<svg xmlns="http://www.w3.org/2000/svg" xmlns:xlink="http://www.w3.org/1999/xlink" width="24.001" height="14.402" viewBox="0 0 24.001 14.402">
  <defs>
    <clipPath id="clip-path">
      <path id="Path_924" data-name="Path 924" d="M8.52-18.6h9.6a.9.9,0,0,0,.9-.9.9.9,0,0,0-.9-.9h-9.4a.9.9,0,0,0-.306.054c-.288.1-2.892.894-2.892,2.946,0,1.752,1.932,2.766,3,3h9.018c.144,0,3.54.12,5.5-1.764a5.4,5.4,0,0,0,1.68-3.636,4.274,4.274,0,0,0-1.7-3.216A7.121,7.121,0,0,0,18.336-24.6H7.956C5.352-24.6.72-22.939.72-18c0,2.478.426,4.3,1.86,5.7a8.1,8.1,0,0,0,5.34,2.1h12a.9.9,0,0,0,.9-.9.9.9,0,0,0-.9-.9H7.956a6.294,6.294,0,0,1-4.122-1.59C2.76-14.635,2.52-16.027,2.52-18c0-4.416,5.25-4.8,5.46-4.8h10.4a5.416,5.416,0,0,1,3.4,1.086c.564.54,1.14.96,1.14,1.914a3.648,3.648,0,0,1-1.1,2.334c-1.4,1.35-4.158,1.266-4.2,1.266H8.52c-.384-.1-1.2-.642-1.2-1.2S7.974-18.367,8.52-18.6Z" transform="translate(-0.72 24.603)" fill="#44425a" clip-rule="evenodd"/>
    </clipPath>
    <clipPath id="clip-path-2">
      <path id="Path_923" data-name="Path 923" d="M-83,981.042H517.014V-855H-83Z" transform="translate(83 855)" fill="#44425a"/>
    </clipPath>
  </defs>
  <g id="Group_665" data-name="Group 665" transform="translate(0 0)" clip-path="url(#clip-path)">
    <g id="Group_664" data-name="Group 664" transform="translate(-50.233 -498.25)" clip-path="url(#clip-path-2)">
      <path id="Path_922" data-name="Path 922" d="M-4.28-9.2h30V-29.6h-30Z" transform="translate(51.513 524.852)" fill="#44425a"/>
    </g>
  </g>
</svg>
