<svg xmlns="http://www.w3.org/2000/svg" width="" height="" viewBox="0 0 80.877 65.972">
  <g id="Group_720" data-name="Group 720" transform="translate(0.022 -4.275)">
    <g id="Group_719" data-name="Group 719" transform="translate(0 4.273)">
      <g id="Group_718" data-name="Group 718">
        <path id="Path_978" data-name="Path 978" d="M80.906,32.581a20.307,20.307,0,0,0-1.432-7.721,15.919,15.919,0,0,0-.685-1.494,16.675,16.675,0,0,0-2.242-3.238,19.645,19.645,0,0,0-11.955-6.1,35.137,35.137,0,0,0-13.574,1.183c-3.487-4.359-10.461-9.589-22.977-7.1C20.88,9.543,15.525,9.356,13.221,8.8a14.846,14.846,0,0,1-2.927-1.059,1.122,1.122,0,0,0-1.557.685,7.988,7.988,0,0,0-.249,3.113A9.163,9.163,0,0,0,20.381,19.38c6.414-1.868,9.527-3.238,14.2-2.927a15.341,15.341,0,0,1,8.1,2.927h0c-16.127-6.538-22.6,7.908-40.848,5.48A1.6,1.6,0,0,0,.144,27.039C1.763,31.584,8.3,40.925,18.576,38.309c6.663-1.681,13.139-7.348,17.31-7.285L27.169,71.872a1.752,1.752,0,0,0-.062.5.925.925,0,0,0,.374.809,1.58,1.58,0,0,0,1,.249h10.15A1.694,1.694,0,0,0,40.5,71.873l3.425-16.065a12.107,12.107,0,0,0,4.546,3.3,14.472,14.472,0,0,0,6.1,1.245,24.593,24.593,0,0,0,11.955-2.864,25.508,25.508,0,0,0,8.842-7.846A30.938,30.938,0,0,0,80.286,38.31,31.55,31.55,0,0,0,80.906,32.581ZM68.2,35.2a.229.229,0,0,1-.062.187,5.715,5.715,0,0,0-1.993-3.362,6.051,6.051,0,0,0-4.795-1.183A7.949,7.949,0,0,0,56.621,33.7c-2.615,3.176-2.491,7.6.249,9.838a6.134,6.134,0,0,0,4.857,1.183A8.014,8.014,0,0,0,65.4,42.979h0a13.417,13.417,0,0,1-10.523,5.666,8.632,8.632,0,0,1-4.546-1.121,6.986,6.986,0,0,1-2.8-3.051A9.4,9.4,0,0,1,46.6,40.24a10.561,10.561,0,0,1,.249-2.491,13.937,13.937,0,0,1,2.491-5.355,15.032,15.032,0,0,1,4.67-4.172A11.2,11.2,0,0,1,59.672,26.6c2.8,0,4.981.747,6.414,2.242A8.247,8.247,0,0,1,68.2,35.2Zm-3.484,5.1a1.921,1.921,0,0,1-1.681.56,1.569,1.569,0,0,1-1.183-1A3.769,3.769,0,0,1,63.035,36a1.921,1.921,0,0,1,1.681-.56,1.569,1.569,0,0,1,1.183,1A3.769,3.769,0,0,1,64.716,40.3Z" transform="translate(-0.053 -7.465)" fill="#adeb06"/>
      </g>
    </g>
  </g>
</svg>
